<?xml version="1.0" encoding="utf-8"?>
<!-- Generator: Adobe Illustrator 22.1.0, SVG Export Plug-In . SVG Version: 6.00 Build 0)  -->
<svg version="1.1" id="Lag_1" xmlns="http://www.w3.org/2000/svg" xmlns:xlink="http://www.w3.org/1999/xlink" x="0px" y="0px"
	 viewBox="0 0 500 500" style="enable-background:new 0 0 500 500;" xml:space="preserve">
<style type="text/css">
	.st0{fill:#30BBF2;}
	.st1{fill:none;stroke:#FFFFFF;stroke-width:12.6037;stroke-linecap:round;stroke-linejoin:round;stroke-miterlimit:10;}
</style>
<g id="Icon_1_">
	<path class="st0" d="M486,233.2c-35.8-95.8-120.7-59.1-120.7-59.1s-2.1-69-113.2-69c-17.2,0-31.7,1.6-44,4.3
		c-17.4,3.8-31.8,12.4-42.5,23.6h-3.8l0.7-0.6c0,0-63-29.4-117.6,25.2c-44,44-37.8,100.8-33.6,109.2l5-4.5
		c-18.9,31-7.3,73.4,31.5,96.9c11.6,7,25.9,13.8,43.6,20.1c66.5,23.5,118.6,16.1,150.8,5.8l4.5,0.8l-16.4,2.7c0,0,37.3,8.5,87.7,4.3
		c34-2.8,55.8-17.3,65.3-25.1l0,0l0,0c3.6-2.9,5.4-4.9,5.4-4.9l-2.3,0.4l0.6-0.8c2,0.5,4,1,6.1,1.3
		C445.6,372.5,513.8,307.4,486,233.2z"/>
	<g>
		<path class="st1" d="M410.4,266.8c0,0-78.6,14.8-52.4,73.7c6.3,14.3,20.2,20.7,35,23.2c52.6,8.8,120.8-56.3,93-130.5
			c-35.8-95.8-120.7-59.1-120.7-59.1s-2.1-69-113.2-69c-17.2,0-31.7,1.6-44,4.3c-52.8,11.6-79.1,66.9-50.5,108.7
			c8.1,11.8,19.9,21.2,36.8,21.2c70,0,59.7-65.3,59.7-65.3"/>
		<path class="st1" d="M11.3,266.8c-4.2-8.4-10.4-65.3,33.6-109.2c54.6-54.6,117.6-25.2,117.6-25.2"/>
		<path class="st1" d="M114.2,315.8c0,0,55.7-60.2-16.5-85.8c-17.5-6.2-45.2,1.5-58.2,9.6c-46.3,28.5-41.4,89.6,8.4,119.7
			c11.6,7,25.9,13.8,43.6,20.1c114.6,40.6,186.8-10.8,186.8-10.8"/>
		<path class="st1" d="M388.7,362.8c0,0-23.9,26.1-70.7,30c-50.4,4.2-87.7-4.3-87.7-4.3"/>
	</g>
</g>
</svg>
