<?xml version="1.0" encoding="utf-8"?>
<!-- Generator: Adobe Illustrator 21.0.2, SVG Export Plug-In . SVG Version: 6.00 Build 0)  -->
<svg version="1.1" id="Lag_1" xmlns="http://www.w3.org/2000/svg" xmlns:xlink="http://www.w3.org/1999/xlink" x="0px" y="0px"
	 viewBox="0 0 190 285" enable-background="new 0 0 190 285" xml:space="preserve">
<rect fill="#B3B2B2" width="190" height="285"/>
<g>
	<path fill="#F2F2F2" d="M54.2,118.3c0-14.7,4.8-26.9,14.5-36.6c6.8-6.8,15.9-10.2,27.2-10.2c12.5,0,22.1,3.4,28.9,10.2
		c7.4,7.4,11.1,16.7,11.1,28.1c0,9.6-3.4,17.9-10.2,24.7c-4,4-9.4,9.4-16.2,16.2c-5.1,5.1-7.7,12.8-7.7,23H86.5
		c0-12.5,2-21.8,6-28.1c2.8-4.5,8.2-10.8,16.2-18.7c4.5-4.5,6.8-9.9,6.8-16.2c0-7.9-2-13.9-6-17.9c-3.4-3.4-8.2-5.1-14.5-5.1
		c-5.1,0-9.4,1.7-12.8,5.1c-5.7,5.7-8.5,14.2-8.5,25.5H54.2z M84.8,198.2h18.7v20.4H84.8V198.2z"/>
</g>
</svg>
