<?xml version="1.0" encoding="utf-8"?>
<!-- Generator: Adobe Illustrator 21.0.2, SVG Export Plug-In . SVG Version: 6.00 Build 0)  -->
<svg version="1.1" id="Lag_1" xmlns="http://www.w3.org/2000/svg" xmlns:xlink="http://www.w3.org/1999/xlink" x="0px" y="0px"
	 viewBox="0 0 1920 1080" enable-background="new 0 0 1920 1080" xml:space="preserve">
<rect fill="#B3B2B2" width="1920" height="1080"/>
<g>
	<path fill="#F2F2F2" d="M741,398.8c0-79.1,25.8-144.4,77.6-196.2c36.5-36.5,85.1-54.8,146-54.8c66.9,0,118.6,18.3,155.1,54.8
		c39.5,39.6,59.3,89.8,59.3,150.6c0,51.8-18.3,95.8-54.8,132.3c-21.3,21.3-50.2,50.2-86.7,86.7c-27.4,27.4-41.1,68.4-41.1,123.2
		h-82.1c0-66.9,10.6-117.1,31.9-150.6c15.2-24.3,44.1-57.7,86.7-100.4c24.3-24.3,36.5-53.2,36.5-86.7c0-42.6-10.7-74.5-31.9-95.8
		c-18.3-18.3-44.1-27.4-77.6-27.4c-27.4,0-50.2,9.1-68.4,27.4c-30.4,30.4-45.6,76.1-45.6,136.9H741z M905.3,827.7h100.4v109.5H905.3
		V827.7z"/>
</g>
</svg>
